<mxfile host="65bd71144e">
    <diagram id="MpqLLwfI6msRv4NIBq-8" name="Page-1">
        <mxGraphModel dx="795" dy="321" grid="1" gridSize="10" guides="1" tooltips="1" connect="1" arrows="1" fold="1" page="1" pageScale="1" pageWidth="850" pageHeight="1100" math="0" shadow="0">
            <root>
                <mxCell id="0"/>
                <mxCell id="1" parent="0"/>
                <mxCell id="2" value="" style="rounded=0;whiteSpace=wrap;html=1;fillColor=#f5f5f5;fontColor=#333333;strokeColor=#666666;" vertex="1" parent="1">
                    <mxGeometry x="50" y="50" width="710" height="1700" as="geometry"/>
                </mxCell>
                <mxCell id="3" value="" style="rounded=0;whiteSpace=wrap;html=1;" vertex="1" parent="1">
                    <mxGeometry x="50" y="30" width="710" height="50" as="geometry"/>
                </mxCell>
                <mxCell id="4" value="Eiji Toriki's Portfolio" style="text;html=1;strokeColor=none;fillColor=none;align=center;verticalAlign=middle;whiteSpace=wrap;rounded=0;fontSize=18;" vertex="1" parent="1">
                    <mxGeometry x="60" y="40" width="170" height="30" as="geometry"/>
                </mxCell>
                <mxCell id="5" value="introduction&lt;span style=&quot;white-space: pre; font-size: 14px;&quot;&gt;&#9;&lt;/span&gt;Career&lt;span style=&quot;white-space: pre; font-size: 14px;&quot;&gt;&#9;&lt;/span&gt;Skill&lt;span style=&quot;white-space: pre; font-size: 14px;&quot;&gt;&#9;&lt;/span&gt;&lt;span style=&quot;white-space: pre; font-size: 14px;&quot;&gt;&#9;&lt;/span&gt;Contact" style="text;html=1;strokeColor=none;fillColor=none;align=center;verticalAlign=middle;whiteSpace=wrap;rounded=0;fontSize=14;" vertex="1" parent="1">
                    <mxGeometry x="520" y="40" width="170" height="30" as="geometry"/>
                </mxCell>
                <mxCell id="6" value="■ introduction" style="text;html=1;strokeColor=none;fillColor=none;align=center;verticalAlign=middle;whiteSpace=wrap;rounded=0;fontSize=16;fontStyle=4" vertex="1" parent="1">
                    <mxGeometry x="70" y="90" width="130" height="30" as="geometry"/>
                </mxCell>
                <mxCell id="7" value="アイコン" style="rounded=0;whiteSpace=wrap;html=1;fontSize=16;" vertex="1" parent="1">
                    <mxGeometry x="100" y="130" width="140" height="140" as="geometry"/>
                </mxCell>
                <mxCell id="16" value="" style="rounded=0;whiteSpace=wrap;html=1;fontSize=14;" vertex="1" parent="1">
                    <mxGeometry x="280" y="130" width="440" height="140" as="geometry"/>
                </mxCell>
                <mxCell id="8" value="鳥木　瑛司" style="text;html=1;strokeColor=none;fillColor=none;align=center;verticalAlign=middle;whiteSpace=wrap;rounded=0;fontSize=20;" vertex="1" parent="1">
                    <mxGeometry x="285" y="140" width="130" height="30" as="geometry"/>
                </mxCell>
                <mxCell id="9" value="（とりき　えいじ）" style="text;html=1;strokeColor=none;fillColor=none;align=center;verticalAlign=middle;whiteSpace=wrap;rounded=0;fontSize=20;" vertex="1" parent="1">
                    <mxGeometry x="405" y="140" width="210" height="30" as="geometry"/>
                </mxCell>
                <mxCell id="11" value="・都内のSIer企業に勤める社会人３年目" style="text;html=1;strokeColor=none;fillColor=none;align=left;verticalAlign=middle;whiteSpace=wrap;rounded=0;fontSize=14;" vertex="1" parent="1">
                    <mxGeometry x="315" y="180" width="330" height="30" as="geometry"/>
                </mxCell>
                <mxCell id="12" value="・毎週土曜日はプログラミングスクールの講師を務める" style="text;html=1;strokeColor=none;fillColor=none;align=left;verticalAlign=middle;whiteSpace=wrap;rounded=0;fontSize=14;" vertex="1" parent="1">
                    <mxGeometry x="315" y="210" width="400" height="30" as="geometry"/>
                </mxCell>
                <mxCell id="13" value="・趣味はカラオケと筋トレ" style="text;html=1;strokeColor=none;fillColor=none;align=left;verticalAlign=middle;whiteSpace=wrap;rounded=0;fontSize=14;" vertex="1" parent="1">
                    <mxGeometry x="315" y="240" width="400" height="30" as="geometry"/>
                </mxCell>
                <mxCell id="14" value="■ Career" style="text;html=1;strokeColor=none;fillColor=none;align=center;verticalAlign=middle;whiteSpace=wrap;rounded=0;fontSize=16;fontStyle=4" vertex="1" parent="1">
                    <mxGeometry x="70" y="290" width="90" height="30" as="geometry"/>
                </mxCell>
                <mxCell id="17" value="" style="rounded=0;whiteSpace=wrap;html=1;fontSize=14;" vertex="1" parent="1">
                    <mxGeometry x="100" y="340" width="620" height="200" as="geometry"/>
                </mxCell>
                <mxCell id="15" value="15歳～20歳" style="text;html=1;strokeColor=none;fillColor=none;align=center;verticalAlign=middle;whiteSpace=wrap;rounded=0;fontSize=14;" vertex="1" parent="1">
                    <mxGeometry x="130" y="411" width="100" height="30" as="geometry"/>
                </mxCell>
                <mxCell id="18" value="年齢" style="text;html=1;strokeColor=none;fillColor=none;align=center;verticalAlign=middle;whiteSpace=wrap;rounded=0;fontSize=14;" vertex="1" parent="1">
                    <mxGeometry x="150" y="381" width="60" height="30" as="geometry"/>
                </mxCell>
                <mxCell id="20" value="経歴" style="text;html=1;strokeColor=none;fillColor=none;align=center;verticalAlign=middle;whiteSpace=wrap;rounded=0;fontSize=14;" vertex="1" parent="1">
                    <mxGeometry x="450" y="381" width="60" height="30" as="geometry"/>
                </mxCell>
                <mxCell id="21" value="工業高等専門学校（高専）にてIT技術の基礎を学ぶ" style="text;html=1;strokeColor=none;fillColor=none;align=left;verticalAlign=middle;whiteSpace=wrap;rounded=0;fontSize=14;" vertex="1" parent="1">
                    <mxGeometry x="302.5" y="411" width="355" height="30" as="geometry"/>
                </mxCell>
                <mxCell id="22" value="21歳～22歳" style="text;html=1;strokeColor=none;fillColor=none;align=center;verticalAlign=middle;whiteSpace=wrap;rounded=0;fontSize=14;" vertex="1" parent="1">
                    <mxGeometry x="130" y="441" width="100" height="30" as="geometry"/>
                </mxCell>
                <mxCell id="23" value="高専に本来よりも２年長く在籍し、研究活動に勤しむ" style="text;html=1;strokeColor=none;fillColor=none;align=left;verticalAlign=middle;whiteSpace=wrap;rounded=0;fontSize=14;" vertex="1" parent="1">
                    <mxGeometry x="302.5" y="441" width="355" height="30" as="geometry"/>
                </mxCell>
                <mxCell id="25" value="23歳～24歳" style="text;html=1;strokeColor=none;fillColor=none;align=center;verticalAlign=middle;whiteSpace=wrap;rounded=0;fontSize=14;" vertex="1" parent="1">
                    <mxGeometry x="130" y="471" width="100" height="30" as="geometry"/>
                </mxCell>
                <mxCell id="26" value="24歳～" style="text;html=1;strokeColor=none;fillColor=none;align=center;verticalAlign=middle;whiteSpace=wrap;rounded=0;fontSize=14;" vertex="1" parent="1">
                    <mxGeometry x="130" y="501" width="100" height="30" as="geometry"/>
                </mxCell>
                <mxCell id="27" value="三大キャリアの某１社でアプリの運用・保守を経験" style="text;html=1;strokeColor=none;fillColor=none;align=left;verticalAlign=middle;whiteSpace=wrap;rounded=0;fontSize=14;" vertex="1" parent="1">
                    <mxGeometry x="302.5" y="471" width="355" height="30" as="geometry"/>
                </mxCell>
                <mxCell id="28" value="SIer企業で公共領域のシステム開発プロジェクトに従事" style="text;html=1;strokeColor=none;fillColor=none;align=left;verticalAlign=middle;whiteSpace=wrap;rounded=0;fontSize=14;" vertex="1" parent="1">
                    <mxGeometry x="302.5" y="501" width="355" height="30" as="geometry"/>
                </mxCell>
                <mxCell id="29" value="〇キャリア年表" style="text;html=1;strokeColor=none;fillColor=none;align=left;verticalAlign=middle;whiteSpace=wrap;rounded=0;fontSize=16;" vertex="1" parent="1">
                    <mxGeometry x="105" y="345" width="115" height="30" as="geometry"/>
                </mxCell>
                <mxCell id="30" value="■ Skill" style="text;html=1;strokeColor=none;fillColor=none;align=center;verticalAlign=middle;whiteSpace=wrap;rounded=0;fontSize=16;fontStyle=4" vertex="1" parent="1">
                    <mxGeometry x="70" y="730" width="90" height="30" as="geometry"/>
                </mxCell>
                <mxCell id="31" value="" style="rounded=0;whiteSpace=wrap;html=1;fontSize=14;" vertex="1" parent="1">
                    <mxGeometry x="100" y="550" width="620" height="150" as="geometry"/>
                </mxCell>
                <mxCell id="32" value="〇成果" style="text;html=1;strokeColor=none;fillColor=none;align=left;verticalAlign=middle;whiteSpace=wrap;rounded=0;fontSize=16;" vertex="1" parent="1">
                    <mxGeometry x="105" y="555" width="115" height="30" as="geometry"/>
                </mxCell>
                <mxCell id="33" value="年齢" style="text;html=1;strokeColor=none;fillColor=none;align=center;verticalAlign=middle;whiteSpace=wrap;rounded=0;fontSize=14;" vertex="1" parent="1">
                    <mxGeometry x="150" y="590" width="60" height="30" as="geometry"/>
                </mxCell>
                <mxCell id="34" value="21歳" style="text;html=1;strokeColor=none;fillColor=none;align=center;verticalAlign=middle;whiteSpace=wrap;rounded=0;fontSize=14;" vertex="1" parent="1">
                    <mxGeometry x="130" y="620" width="100" height="30" as="geometry"/>
                </mxCell>
                <mxCell id="35" value="22歳" style="text;html=1;strokeColor=none;fillColor=none;align=center;verticalAlign=middle;whiteSpace=wrap;rounded=0;fontSize=14;" vertex="1" parent="1">
                    <mxGeometry x="130" y="650" width="100" height="30" as="geometry"/>
                </mxCell>
                <mxCell id="36" value="成果" style="text;html=1;strokeColor=none;fillColor=none;align=center;verticalAlign=middle;whiteSpace=wrap;rounded=0;fontSize=14;" vertex="1" parent="1">
                    <mxGeometry x="430" y="590" width="60" height="30" as="geometry"/>
                </mxCell>
                <mxCell id="37" value="情報処理北海道シンポジウム2022　優秀プレゼンテーション賞" style="text;html=1;strokeColor=none;fillColor=none;align=center;verticalAlign=middle;whiteSpace=wrap;rounded=0;fontSize=14;" vertex="1" parent="1">
                    <mxGeometry x="230" y="620" width="460" height="30" as="geometry"/>
                </mxCell>
                <mxCell id="40" value="リンクにする" style="shape=callout;whiteSpace=wrap;html=1;perimeter=calloutPerimeter;fontSize=14;fillColor=#dae8fc;strokeColor=#6c8ebf;position2=0;size=35;position=0.17;base=20;" vertex="1" parent="1">
                    <mxGeometry x="600" y="545" width="120" height="75" as="geometry"/>
                </mxCell>
                <mxCell id="41" value="情報処理学会　第84回全国大会　学生奨励賞" style="text;html=1;strokeColor=none;fillColor=none;align=center;verticalAlign=middle;whiteSpace=wrap;rounded=0;fontSize=14;" vertex="1" parent="1">
                    <mxGeometry x="230" y="650" width="460" height="30" as="geometry"/>
                </mxCell>
                <mxCell id="42" value="" style="rounded=0;whiteSpace=wrap;html=1;fontSize=14;" vertex="1" parent="1">
                    <mxGeometry x="100" y="775" width="620" height="155" as="geometry"/>
                </mxCell>
                <mxCell id="43" value="〇プログラミング言語" style="text;html=1;strokeColor=none;fillColor=none;align=left;verticalAlign=middle;whiteSpace=wrap;rounded=0;fontSize=16;" vertex="1" parent="1">
                    <mxGeometry x="105" y="780" width="175" height="30" as="geometry"/>
                </mxCell>
                <mxCell id="44" value="★：1年未満、★★：1年～3年、★★★：3年以上" style="text;html=1;strokeColor=none;fillColor=none;align=left;verticalAlign=middle;whiteSpace=wrap;rounded=0;fontSize=12;" vertex="1" parent="1">
                    <mxGeometry x="450" y="745" width="270" height="30" as="geometry"/>
                </mxCell>
                <mxCell id="45" value="python" style="text;html=1;strokeColor=none;fillColor=none;align=left;verticalAlign=middle;whiteSpace=wrap;rounded=0;fontSize=16;" vertex="1" parent="1">
                    <mxGeometry x="132.5" y="820" width="60" height="30" as="geometry"/>
                </mxCell>
                <mxCell id="46" value="JavaScript" style="text;html=1;strokeColor=none;fillColor=none;align=left;verticalAlign=middle;whiteSpace=wrap;rounded=0;fontSize=16;" vertex="1" parent="1">
                    <mxGeometry x="340" y="820" width="85" height="30" as="geometry"/>
                </mxCell>
                <mxCell id="47" value="Java" style="text;html=1;strokeColor=none;fillColor=none;align=left;verticalAlign=middle;whiteSpace=wrap;rounded=0;fontSize=16;" vertex="1" parent="1">
                    <mxGeometry x="550" y="820" width="40" height="30" as="geometry"/>
                </mxCell>
                <mxCell id="48" value="C" style="text;html=1;strokeColor=none;fillColor=none;align=left;verticalAlign=middle;whiteSpace=wrap;rounded=0;fontSize=16;" vertex="1" parent="1">
                    <mxGeometry x="132.5" y="850" width="60" height="30" as="geometry"/>
                </mxCell>
                <mxCell id="49" value="C++" style="text;html=1;strokeColor=none;fillColor=none;align=left;verticalAlign=middle;whiteSpace=wrap;rounded=0;fontSize=16;" vertex="1" parent="1">
                    <mxGeometry x="340" y="882.5" width="60" height="30" as="geometry"/>
                </mxCell>
                <mxCell id="51" value="php" style="text;html=1;strokeColor=none;fillColor=none;align=left;verticalAlign=middle;whiteSpace=wrap;rounded=0;fontSize=16;" vertex="1" parent="1">
                    <mxGeometry x="550" y="850" width="60" height="30" as="geometry"/>
                </mxCell>
                <mxCell id="53" value="Go" style="text;html=1;strokeColor=none;fillColor=none;align=left;verticalAlign=middle;whiteSpace=wrap;rounded=0;fontSize=16;" vertex="1" parent="1">
                    <mxGeometry x="132.5" y="880" width="60" height="30" as="geometry"/>
                </mxCell>
                <mxCell id="54" value="★★★" style="text;html=1;strokeColor=none;fillColor=none;align=left;verticalAlign=middle;whiteSpace=wrap;rounded=0;fontSize=16;" vertex="1" parent="1">
                    <mxGeometry x="210" y="820" width="42.5" height="30" as="geometry"/>
                </mxCell>
                <mxCell id="55" value="★★★" style="text;html=1;strokeColor=none;fillColor=none;align=left;verticalAlign=middle;whiteSpace=wrap;rounded=0;fontSize=16;" vertex="1" parent="1">
                    <mxGeometry x="447.5" y="820" width="42.5" height="30" as="geometry"/>
                </mxCell>
                <mxCell id="56" value="★★" style="text;html=1;strokeColor=none;fillColor=none;align=left;verticalAlign=middle;whiteSpace=wrap;rounded=0;fontSize=16;" vertex="1" parent="1">
                    <mxGeometry x="615" y="820" width="42.5" height="30" as="geometry"/>
                </mxCell>
                <mxCell id="57" value="★★" style="text;html=1;strokeColor=none;fillColor=none;align=left;verticalAlign=middle;whiteSpace=wrap;rounded=0;fontSize=16;" vertex="1" parent="1">
                    <mxGeometry x="210" y="850" width="42.5" height="30" as="geometry"/>
                </mxCell>
                <mxCell id="58" value="★" style="text;html=1;strokeColor=none;fillColor=none;align=left;verticalAlign=middle;whiteSpace=wrap;rounded=0;fontSize=16;" vertex="1" parent="1">
                    <mxGeometry x="615" y="850" width="42.5" height="30" as="geometry"/>
                </mxCell>
                <mxCell id="59" value="★" style="text;html=1;strokeColor=none;fillColor=none;align=left;verticalAlign=middle;whiteSpace=wrap;rounded=0;fontSize=16;" vertex="1" parent="1">
                    <mxGeometry x="450" y="882.5" width="42.5" height="30" as="geometry"/>
                </mxCell>
                <mxCell id="60" value="★" style="text;html=1;strokeColor=none;fillColor=none;align=left;verticalAlign=middle;whiteSpace=wrap;rounded=0;fontSize=16;" vertex="1" parent="1">
                    <mxGeometry x="210" y="882.5" width="42.5" height="30" as="geometry"/>
                </mxCell>
                <mxCell id="64" value="" style="rounded=0;whiteSpace=wrap;html=1;fontSize=14;" vertex="1" parent="1">
                    <mxGeometry x="100" y="945" width="620" height="105" as="geometry"/>
                </mxCell>
                <mxCell id="65" value="〇フレームワーク" style="text;html=1;strokeColor=none;fillColor=none;align=left;verticalAlign=middle;whiteSpace=wrap;rounded=0;fontSize=16;" vertex="1" parent="1">
                    <mxGeometry x="105" y="950" width="175" height="30" as="geometry"/>
                </mxCell>
                <mxCell id="66" value="React" style="text;html=1;strokeColor=none;fillColor=none;align=left;verticalAlign=middle;whiteSpace=wrap;rounded=0;fontSize=16;" vertex="1" parent="1">
                    <mxGeometry x="132.5" y="980" width="60" height="30" as="geometry"/>
                </mxCell>
                <mxCell id="67" value="★★★" style="text;html=1;strokeColor=none;fillColor=none;align=left;verticalAlign=middle;whiteSpace=wrap;rounded=0;fontSize=16;" vertex="1" parent="1">
                    <mxGeometry x="210" y="980" width="42.5" height="30" as="geometry"/>
                </mxCell>
                <mxCell id="68" value="Spring Boot" style="text;html=1;strokeColor=none;fillColor=none;align=left;verticalAlign=middle;whiteSpace=wrap;rounded=0;fontSize=16;" vertex="1" parent="1">
                    <mxGeometry x="340" y="980" width="90" height="30" as="geometry"/>
                </mxCell>
                <mxCell id="69" value="VBA" style="text;html=1;strokeColor=none;fillColor=none;align=left;verticalAlign=middle;whiteSpace=wrap;rounded=0;fontSize=16;" vertex="1" parent="1">
                    <mxGeometry x="340" y="850" width="60" height="30" as="geometry"/>
                </mxCell>
                <mxCell id="71" value="★★" style="text;html=1;strokeColor=none;fillColor=none;align=left;verticalAlign=middle;whiteSpace=wrap;rounded=0;fontSize=16;" vertex="1" parent="1">
                    <mxGeometry x="450" y="850" width="42.5" height="30" as="geometry"/>
                </mxCell>
                <mxCell id="72" value="★★" style="text;html=1;strokeColor=none;fillColor=none;align=left;verticalAlign=middle;whiteSpace=wrap;rounded=0;fontSize=16;" vertex="1" parent="1">
                    <mxGeometry x="450" y="980" width="42.5" height="30" as="geometry"/>
                </mxCell>
                <mxCell id="74" value="flask" style="text;html=1;strokeColor=none;fillColor=none;align=left;verticalAlign=middle;whiteSpace=wrap;rounded=0;fontSize=16;" vertex="1" parent="1">
                    <mxGeometry x="550" y="980" width="40" height="30" as="geometry"/>
                </mxCell>
                <mxCell id="75" value="★" style="text;html=1;strokeColor=none;fillColor=none;align=left;verticalAlign=middle;whiteSpace=wrap;rounded=0;fontSize=16;" vertex="1" parent="1">
                    <mxGeometry x="615" y="980" width="42.5" height="30" as="geometry"/>
                </mxCell>
                <mxCell id="76" value="Vue" style="text;html=1;strokeColor=none;fillColor=none;align=left;verticalAlign=middle;whiteSpace=wrap;rounded=0;fontSize=16;" vertex="1" parent="1">
                    <mxGeometry x="132.5" y="1010" width="60" height="30" as="geometry"/>
                </mxCell>
                <mxCell id="77" value="★" style="text;html=1;strokeColor=none;fillColor=none;align=left;verticalAlign=middle;whiteSpace=wrap;rounded=0;fontSize=16;" vertex="1" parent="1">
                    <mxGeometry x="210" y="1010" width="42.5" height="30" as="geometry"/>
                </mxCell>
                <mxCell id="78" value="" style="rounded=0;whiteSpace=wrap;html=1;fontSize=14;" vertex="1" parent="1">
                    <mxGeometry x="100" y="1060" width="620" height="80" as="geometry"/>
                </mxCell>
                <mxCell id="79" value="〇インフラ" style="text;html=1;strokeColor=none;fillColor=none;align=left;verticalAlign=middle;whiteSpace=wrap;rounded=0;fontSize=16;" vertex="1" parent="1">
                    <mxGeometry x="105" y="1065" width="175" height="30" as="geometry"/>
                </mxCell>
                <mxCell id="80" value="MySQL" style="text;html=1;strokeColor=none;fillColor=none;align=left;verticalAlign=middle;whiteSpace=wrap;rounded=0;fontSize=16;" vertex="1" parent="1">
                    <mxGeometry x="130" y="1100" width="60" height="30" as="geometry"/>
                </mxCell>
                <mxCell id="81" value="★★" style="text;html=1;strokeColor=none;fillColor=none;align=left;verticalAlign=middle;whiteSpace=wrap;rounded=0;fontSize=16;" vertex="1" parent="1">
                    <mxGeometry x="210" y="1100" width="42.5" height="30" as="geometry"/>
                </mxCell>
                <mxCell id="85" value="Oracle" style="text;html=1;strokeColor=none;fillColor=none;align=left;verticalAlign=middle;whiteSpace=wrap;rounded=0;fontSize=16;" vertex="1" parent="1">
                    <mxGeometry x="333.75" y="1100" width="90" height="30" as="geometry"/>
                </mxCell>
                <mxCell id="86" value="★★" style="text;html=1;strokeColor=none;fillColor=none;align=left;verticalAlign=middle;whiteSpace=wrap;rounded=0;fontSize=16;" vertex="1" parent="1">
                    <mxGeometry x="443.75" y="1100" width="42.5" height="30" as="geometry"/>
                </mxCell>
                <mxCell id="87" value="AWS" style="text;html=1;strokeColor=none;fillColor=none;align=left;verticalAlign=middle;whiteSpace=wrap;rounded=0;fontSize=16;" vertex="1" parent="1">
                    <mxGeometry x="550" y="1100" width="90" height="30" as="geometry"/>
                </mxCell>
                <mxCell id="88" value="★" style="text;html=1;strokeColor=none;fillColor=none;align=left;verticalAlign=middle;whiteSpace=wrap;rounded=0;fontSize=16;" vertex="1" parent="1">
                    <mxGeometry x="660" y="1100" width="42.5" height="30" as="geometry"/>
                </mxCell>
                <mxCell id="89" value="" style="rounded=0;whiteSpace=wrap;html=1;fontSize=14;" vertex="1" parent="1">
                    <mxGeometry x="100" y="1150" width="620" height="170" as="geometry"/>
                </mxCell>
                <mxCell id="90" value="〇その他ツール" style="text;html=1;strokeColor=none;fillColor=none;align=left;verticalAlign=middle;whiteSpace=wrap;rounded=0;fontSize=16;" vertex="1" parent="1">
                    <mxGeometry x="105" y="1160" width="175" height="30" as="geometry"/>
                </mxCell>
                <mxCell id="91" value="Git" style="text;html=1;strokeColor=none;fillColor=none;align=left;verticalAlign=middle;whiteSpace=wrap;rounded=0;fontSize=16;" vertex="1" parent="1">
                    <mxGeometry x="130" y="1190" width="60" height="30" as="geometry"/>
                </mxCell>
                <mxCell id="92" value="★★" style="text;html=1;strokeColor=none;fillColor=none;align=left;verticalAlign=middle;whiteSpace=wrap;rounded=0;fontSize=16;" vertex="1" parent="1">
                    <mxGeometry x="210" y="1190" width="42.5" height="30" as="geometry"/>
                </mxCell>
                <mxCell id="93" value="SVN" style="text;html=1;strokeColor=none;fillColor=none;align=left;verticalAlign=middle;whiteSpace=wrap;rounded=0;fontSize=16;" vertex="1" parent="1">
                    <mxGeometry x="333.75" y="1190" width="60" height="30" as="geometry"/>
                </mxCell>
                <mxCell id="94" value="★" style="text;html=1;strokeColor=none;fillColor=none;align=left;verticalAlign=middle;whiteSpace=wrap;rounded=0;fontSize=16;" vertex="1" parent="1">
                    <mxGeometry x="443.75" y="1190" width="42.5" height="30" as="geometry"/>
                </mxCell>
                <mxCell id="95" value="Slack" style="text;html=1;strokeColor=none;fillColor=none;align=left;verticalAlign=middle;whiteSpace=wrap;rounded=0;fontSize=16;" vertex="1" parent="1">
                    <mxGeometry x="550" y="1190" width="60" height="30" as="geometry"/>
                </mxCell>
                <mxCell id="96" value="★★★" style="text;html=1;strokeColor=none;fillColor=none;align=left;verticalAlign=middle;whiteSpace=wrap;rounded=0;fontSize=16;" vertex="1" parent="1">
                    <mxGeometry x="657.5" y="1190" width="42.5" height="30" as="geometry"/>
                </mxCell>
                <mxCell id="97" value="Discord" style="text;html=1;strokeColor=none;fillColor=none;align=left;verticalAlign=middle;whiteSpace=wrap;rounded=0;fontSize=16;" vertex="1" parent="1">
                    <mxGeometry x="130" y="1220" width="60" height="30" as="geometry"/>
                </mxCell>
                <mxCell id="98" value="★★" style="text;html=1;strokeColor=none;fillColor=none;align=left;verticalAlign=middle;whiteSpace=wrap;rounded=0;fontSize=16;" vertex="1" parent="1">
                    <mxGeometry x="210" y="1220" width="42.5" height="30" as="geometry"/>
                </mxCell>
                <mxCell id="100" value="Excel" style="text;html=1;strokeColor=none;fillColor=none;align=left;verticalAlign=middle;whiteSpace=wrap;rounded=0;fontSize=16;" vertex="1" parent="1">
                    <mxGeometry x="333.75" y="1220" width="60" height="30" as="geometry"/>
                </mxCell>
                <mxCell id="101" value="★★★" style="text;html=1;strokeColor=none;fillColor=none;align=left;verticalAlign=middle;whiteSpace=wrap;rounded=0;fontSize=16;" vertex="1" parent="1">
                    <mxGeometry x="443.75" y="1220" width="42.5" height="30" as="geometry"/>
                </mxCell>
                <mxCell id="102" value="PowerPoint" style="text;html=1;strokeColor=none;fillColor=none;align=left;verticalAlign=middle;whiteSpace=wrap;rounded=0;fontSize=16;" vertex="1" parent="1">
                    <mxGeometry x="550" y="1220" width="60" height="30" as="geometry"/>
                </mxCell>
                <mxCell id="103" value="★★★" style="text;html=1;strokeColor=none;fillColor=none;align=left;verticalAlign=middle;whiteSpace=wrap;rounded=0;fontSize=16;" vertex="1" parent="1">
                    <mxGeometry x="660" y="1220" width="42.5" height="30" as="geometry"/>
                </mxCell>
                <mxCell id="104" value="Word" style="text;html=1;strokeColor=none;fillColor=none;align=left;verticalAlign=middle;whiteSpace=wrap;rounded=0;fontSize=16;" vertex="1" parent="1">
                    <mxGeometry x="131.25" y="1250" width="60" height="30" as="geometry"/>
                </mxCell>
                <mxCell id="105" value="★★★" style="text;html=1;strokeColor=none;fillColor=none;align=left;verticalAlign=middle;whiteSpace=wrap;rounded=0;fontSize=16;" vertex="1" parent="1">
                    <mxGeometry x="211.25" y="1250" width="42.5" height="30" as="geometry"/>
                </mxCell>
                <mxCell id="106" value="" style="rounded=0;whiteSpace=wrap;html=1;fontSize=14;" vertex="1" parent="1">
                    <mxGeometry x="100" y="1340" width="620" height="170" as="geometry"/>
                </mxCell>
                <mxCell id="107" value="〇保有資格" style="text;html=1;strokeColor=none;fillColor=none;align=left;verticalAlign=middle;whiteSpace=wrap;rounded=0;fontSize=16;" vertex="1" parent="1">
                    <mxGeometry x="105" y="1350" width="175" height="30" as="geometry"/>
                </mxCell>
                <mxCell id="108" value="応用情報技術者試験" style="text;html=1;strokeColor=none;fillColor=none;align=left;verticalAlign=middle;whiteSpace=wrap;rounded=0;fontSize=16;" vertex="1" parent="1">
                    <mxGeometry x="132.5" y="1380" width="175" height="30" as="geometry"/>
                </mxCell>
                <mxCell id="109" value="ネットワークスペシャリスト" style="text;html=1;strokeColor=none;fillColor=none;align=left;verticalAlign=middle;whiteSpace=wrap;rounded=0;fontSize=16;" vertex="1" parent="1">
                    <mxGeometry x="395" y="1380" width="250" height="30" as="geometry"/>
                </mxCell>
                <mxCell id="110" value="統計検定２級" style="text;html=1;strokeColor=none;fillColor=none;align=left;verticalAlign=middle;whiteSpace=wrap;rounded=0;fontSize=16;" vertex="1" parent="1">
                    <mxGeometry x="132.5" y="1420" width="250" height="30" as="geometry"/>
                </mxCell>
                <mxCell id="111" value="JDLA E資格" style="text;html=1;strokeColor=none;fillColor=none;align=left;verticalAlign=middle;whiteSpace=wrap;rounded=0;fontSize=16;" vertex="1" parent="1">
                    <mxGeometry x="395" y="1420" width="250" height="30" as="geometry"/>
                </mxCell>
                <mxCell id="112" value="TOEIC Reading &amp;amp; Listening　スコア 845" style="text;html=1;strokeColor=none;fillColor=none;align=left;verticalAlign=middle;whiteSpace=wrap;rounded=0;fontSize=16;" vertex="1" parent="1">
                    <mxGeometry x="132.5" y="1460" width="307.5" height="30" as="geometry"/>
                </mxCell>
                <mxCell id="113" value="■ Contact" style="text;html=1;strokeColor=none;fillColor=none;align=center;verticalAlign=middle;whiteSpace=wrap;rounded=0;fontSize=16;fontStyle=4" vertex="1" parent="1">
                    <mxGeometry x="70" y="1530" width="90" height="30" as="geometry"/>
                </mxCell>
                <mxCell id="116" value="" style="rounded=0;whiteSpace=wrap;html=1;fontSize=14;" vertex="1" parent="1">
                    <mxGeometry x="100" y="1580" width="620" height="130" as="geometry"/>
                </mxCell>
                <mxCell id="117" value="Email" style="text;html=1;strokeColor=none;fillColor=none;align=left;verticalAlign=middle;whiteSpace=wrap;rounded=0;fontSize=16;" vertex="1" parent="1">
                    <mxGeometry x="131.25" y="1630" width="77.5" height="30" as="geometry"/>
                </mxCell>
                <mxCell id="118" value="ｋｔ２ｌａｇｅ＠ｇｍａｉｌ．ｃｏｍ" style="text;html=1;strokeColor=none;fillColor=none;align=center;verticalAlign=middle;whiteSpace=wrap;rounded=0;fontSize=12;" vertex="1" parent="1">
                    <mxGeometry x="198.75" y="1630" width="300" height="30" as="geometry"/>
                </mxCell>
                <mxCell id="119" value="GitHub" style="text;html=1;strokeColor=none;fillColor=none;align=left;verticalAlign=middle;whiteSpace=wrap;rounded=0;fontSize=16;" vertex="1" parent="1">
                    <mxGeometry x="130" y="1660" width="77.5" height="30" as="geometry"/>
                </mxCell>
                <UserObject label="https://github.com/EijiToriki" link="https://github.com/EijiToriki" id="120">
                    <mxCell style="text;whiteSpace=wrap;html=1;fontSize=12;" vertex="1" parent="1">
                        <mxGeometry x="246.25" y="1663" width="180" height="25" as="geometry"/>
                    </mxCell>
                </UserObject>
                <mxCell id="121" value="&lt;div style=&quot;&quot;&gt;&lt;span style=&quot;background-color: initial;&quot;&gt;ご連絡は以下のメールアドレスにお願いいたします。&lt;/span&gt;&lt;/div&gt;&lt;div style=&quot;&quot;&gt;&lt;span style=&quot;background-color: initial;&quot;&gt;※ 全角で記載しております。お手数ですが、半角文字をお願いいたします。&lt;/span&gt;&lt;/div&gt;" style="text;html=1;strokeColor=none;fillColor=none;align=left;verticalAlign=middle;whiteSpace=wrap;rounded=0;fontSize=12;" vertex="1" parent="1">
                    <mxGeometry x="110" y="1590" width="428.75" height="30" as="geometry"/>
                </mxCell>
            </root>
        </mxGraphModel>
    </diagram>
</mxfile>